<svg width="150" height="32" viewBox="0 0 150 32" fill="none" xmlns="http://www.w3.org/2000/svg">
<path d="M144.009 31.327C139.863 31.327 137.193 28.774 137.193 25.003C137.193 21.2554 139.816 18.6321 143.634 18.6321C147.92 18.6321 150.591 22.0049 149.888 26.3615H140.87C141.245 27.6263 142.51 28.4226 144.29 28.4226C145.695 28.4226 146.89 27.9776 147.92 27.2281L149.396 29.6172C148.038 30.6946 146.14 31.327 144.009 31.327ZM140.824 23.9255H146.492C146.187 22.5202 145.18 21.5599 143.658 21.5599C142.205 21.5599 141.105 22.4733 140.824 23.9255Z" fill="white"/>
<path d="M133.456 31.2314C130.505 31.2314 129.006 29.6152 129.006 26.5937V21.9561H127.085V18.9346H129.076L129.146 16.0303H132.824V18.9346H135.822V21.9561H132.824V26.219C132.824 27.273 133.269 27.7883 134.182 27.7883C134.627 27.7883 135.119 27.6712 135.634 27.4604L136.454 30.599C135.517 31.0206 134.44 31.2314 133.456 31.2314Z" fill="white"/>
<path d="M118.144 31.1912C115.638 31.1912 113.999 29.6688 113.999 27.4202C113.999 24.8906 116.013 23.3682 119.292 23.3682C120.229 23.3682 121.142 23.4853 122.126 23.7429V23.4384C122.126 22.1502 121.33 21.5881 119.526 21.5881C118.261 21.5881 117.161 21.8926 115.732 22.5015L114.818 19.8548C116.669 19.0116 118.098 18.6837 120.042 18.6837C123.625 18.6837 125.64 20.4404 125.64 23.5087V31.0273H122.337L122.267 29.5517C121.283 30.5354 119.76 31.1912 118.144 31.1912ZM117.676 27.2329C117.676 28.0526 118.238 28.5445 119.315 28.5445C120.908 28.5445 122.056 27.5373 122.173 26.2023C121.283 25.9446 120.463 25.8041 119.784 25.8041C118.402 25.8041 117.676 26.296 117.676 27.2329Z" fill="white"/>
<path d="M101.962 26.215L98.1673 20.9215V31.0166H94.1855V14.6209H97.7457L102.852 21.5774L107.981 14.6209H111.565V31.0166H107.56V20.9215L103.765 26.215H101.962Z" fill="white"/>
<path d="M83.2773 31.3053C79.9748 31.3053 77.6091 28.7054 77.6091 24.9813C77.6091 21.2571 79.9748 18.6807 83.2773 18.6807C84.8701 18.6807 86.2286 19.2896 87.2123 20.3437V13.6917H91.0301V31.0242H87.5402L87.4934 29.4081C86.533 30.6261 85.0809 31.3053 83.2773 31.3053ZM81.3801 24.9813C81.3801 26.8082 82.5981 28.0496 84.3313 28.0496C86.0412 28.0496 87.2826 26.8082 87.2826 24.9813C87.2826 23.1543 86.0646 21.9129 84.3313 21.9129C82.5981 21.9129 81.3801 23.1543 81.3801 24.9813Z" fill="white"/>
<path d="M63.4178 31.019V18.933H66.9077L66.9546 20.596C68.032 19.3546 69.2734 18.7457 70.9364 18.7457C73.7236 18.7457 75.4335 20.7131 75.4335 23.477V31.019H71.6156V24.5076C71.6156 22.9617 70.9598 22.1185 69.6013 22.1185C68.1023 22.1185 67.2357 23.1256 67.2357 24.7184V31.019H63.4178Z" fill="white"/>
<path d="M56.607 31.0213V18.9354H60.4248V31.0213H56.607ZM56.1854 15.3283C56.1854 13.9932 57.1223 13.1032 58.5042 13.1032C59.9095 13.1032 60.8464 13.9932 60.8464 15.3283C60.8464 16.6634 59.9095 17.5769 58.5042 17.5769C57.1223 17.5769 56.1854 16.6634 56.1854 15.3283Z" fill="white"/>
<path d="M43.8439 26.215L40.0495 20.9215V31.0166H36.0677V14.6209H39.6279L44.7339 21.5774L49.8634 14.6209H53.447V31.0166H49.4418V20.9215L45.6474 26.215H43.8439Z" fill="white"/>
<path d="M26.2149 5.0623C26.0579 4.69931 25.9488 4.31784 25.8361 3.93757C25.8162 3.83668 25.7876 3.73912 25.7486 3.64827L25.7484 3.64854C25.7042 3.50642 25.6578 3.36503 25.606 3.22564C25.3815 2.62098 25.0343 2.02656 24.4821 1.71339C24.0337 1.45908 23.4999 1.41744 23.0303 1.20755C22.6219 1.02507 22.2628 0.739495 21.8826 0.501076C21.8628 0.488706 21.8428 0.476602 21.8227 0.464565L21.8225 0.464365V0.464498C21.4753 0.25707 21.0738 0.107701 20.6849 0.177464L20.6919 0.166424C20.6825 0.171279 20.6734 0.176733 20.6641 0.18172C20.6485 0.184846 20.6329 0.187506 20.6174 0.191364L20.6203 0.205862C20.6037 0.215239 20.5871 0.224483 20.5707 0.234259L20.6012 0.198014C20.1698 0.00920751 19.5801 -0.0378114 19.1166 0.0282942C17.65 0.237584 14.3883 1.95653 16.2796 5.3343L16.2818 5.33177C15.574 6.38162 15.677 8.3016 16.6104 9.14502C15.3135 9.85243 15.4342 11.5347 16.4144 12.3403L16.3752 12.4027C15.3402 13.6186 15.684 15.0174 16.6053 15.4361L16.5822 15.4804C16.0549 16.0501 15.7147 17.2941 15.7084 18.3652C15.7043 19.0635 15.7087 19.7977 16.0412 20.4084C16.1834 20.6696 16.4137 20.9147 16.7043 20.9354C17.005 20.9568 17.2708 20.7305 17.4412 20.4761C17.6115 20.2216 17.7233 19.9266 17.9175 19.6909C18.3046 19.2207 18.9753 19.0371 19.2829 18.5085C19.3428 18.4055 19.3847 18.2922 19.4089 18.1749L19.4425 18.17C20.3011 18.0908 21.0983 17.5174 21.4627 16.717C21.5957 16.425 21.6768 16.1028 21.8678 15.8471C22.2592 15.3232 23.016 15.199 23.4022 14.671C23.4475 14.609 23.4862 14.5427 23.5187 14.4733L23.5188 14.4734C23.996 13.5097 25.2721 13.2192 25.8106 12.2902C26.2635 11.5089 26.1405 10.5224 26.4106 9.6561C26.5234 9.29452 26.7161 8.95993 26.88 8.6181C26.9388 8.50624 26.9903 8.39019 27.0313 8.26975L27.0307 8.26988C27.0955 8.09784 27.145 7.9214 27.1653 7.73625C27.27 6.78031 26.596 5.94322 26.2149 5.0623Z" fill="white"/>
<path d="M14.7817 15.4805L14.7634 15.4339C15.681 15.0125 16.022 13.6166 14.9887 12.4027L14.9076 12.3739C15.9261 11.5824 16.0687 9.86243 14.7535 9.14505C15.687 8.30157 15.79 6.38145 15.082 5.3316L15.0843 5.33433C16.9756 1.95656 13.714 0.237613 12.2474 0.0283232C11.7838 -0.0378489 11.1941 0.00923651 10.7627 0.198043L10.7932 0.234355C10.7769 0.224578 10.7602 0.215268 10.7436 0.205957L10.7465 0.191459C10.7309 0.187602 10.7154 0.184942 10.6997 0.181816C10.6904 0.176828 10.6814 0.171375 10.672 0.16652L10.6789 0.17756C10.2901 0.107796 9.8885 0.257166 9.54128 0.464594C9.54122 0.46466 9.54115 0.46466 9.54108 0.464727C9.52093 0.476764 9.50091 0.488868 9.48116 0.501238C9.10096 0.73959 8.7419 1.02523 8.33349 1.20772C7.86384 1.41754 7.33014 1.45917 6.8817 1.71355C6.32951 2.02679 5.98229 2.62114 5.75777 3.2258C5.70603 3.36519 5.65968 3.50658 5.61538 3.6487L5.61512 3.64844C5.57614 3.73922 5.54755 3.83678 5.52766 3.9376C5.415 4.31787 5.30594 4.69934 5.14885 5.06239C4.76771 5.94331 4.09376 6.78034 4.19844 7.73634C4.21872 7.92156 4.2682 8.098 4.33297 8.26998L4.33244 8.26985C4.37341 8.39028 4.42482 8.50627 4.48374 8.6182C4.64761 8.96003 4.84034 9.29461 4.95306 9.6562C5.22321 10.5225 5.10024 11.509 5.55313 12.2903C6.09156 13.2193 7.36771 13.5098 7.84488 14.4735L7.84495 14.4734C7.87747 14.5428 7.91611 14.6091 7.96147 14.6711C8.34766 15.1991 9.10441 15.3233 9.49586 15.8472C9.68693 16.1029 9.768 16.4251 9.90101 16.7171C10.2654 17.5174 11.0626 18.0909 11.9212 18.1701L11.9549 18.1754C11.9791 18.2926 12.021 18.4057 12.0808 18.5086C12.3883 19.0372 13.0591 19.2208 13.4462 19.691C13.6404 19.9267 13.7523 20.2217 13.9225 20.4762C14.0929 20.7306 14.3586 20.9568 14.6594 20.9354C14.95 20.9147 15.1803 20.6696 15.3225 20.4084C15.6549 19.7978 15.6594 19.0635 15.6553 18.3652C15.6493 17.2941 15.309 16.0502 14.7817 15.4805Z" fill="white"/>
<mask id="mask0_201_13" style="mask-type:luminance" maskUnits="userSpaceOnUse" x="4" y="0" width="24" height="21">
<path d="M27.1618 7.73634C27.1415 7.92156 27.092 8.098 27.0272 8.26998L27.0278 8.26984C26.9868 8.39028 26.9353 8.50627 26.8765 8.6182C26.7126 8.96003 26.5199 9.29461 26.4071 9.6562C26.137 10.5225 26.2599 11.509 25.8071 12.2903C25.2686 13.2193 23.9925 13.5098 23.5153 14.4735L23.5153 14.4734C23.4827 14.5428 23.4441 14.6091 23.3987 14.6711C23.0125 15.1991 22.2557 15.3233 21.8643 15.8472C21.6733 16.1029 21.5922 16.4251 21.4592 16.7171C21.0948 17.5174 20.2976 18.0908 19.4391 18.1701L19.4054 18.175C19.3812 18.2923 19.3393 18.4055 19.2794 18.5086C18.9719 19.0372 18.3011 19.2208 17.914 19.691C17.7198 19.9267 17.6079 20.2217 17.4377 20.4762C17.2673 20.7306 17.0016 20.9568 16.7008 20.9355C16.4102 20.9148 16.1799 20.6696 16.0377 20.4085C15.7053 19.7978 15.7008 19.0636 15.7049 18.3653C15.7112 17.2943 16.0514 16.0502 16.5787 15.4805L16.6018 15.4362C15.6805 15.0175 15.3367 13.6187 16.3717 12.4028L16.4109 12.3404C15.4307 11.5348 15.31 9.85252 16.6069 9.14511C15.6735 8.30163 15.5704 6.38164 16.2784 5.33187L16.2762 5.3344C14.3848 1.95663 17.6464 0.23768 19.1131 0.0283897C19.5767 -0.0377824 20.1664 0.00930298 20.5977 0.19811L20.5672 0.234355C20.5836 0.224578 20.6002 0.215334 20.6168 0.205957L20.6139 0.191459C20.6294 0.187602 20.645 0.184942 20.6606 0.181816C20.6699 0.176828 20.679 0.171375 20.6884 0.16652L20.6814 0.17756C21.0703 0.107796 21.4718 0.257166 21.8191 0.464594V0.464461C21.8191 0.464527 21.8192 0.464594 21.8193 0.46466C21.8393 0.476698 21.8594 0.488735 21.8791 0.501171C22.2593 0.739524 22.6184 1.02516 23.0268 1.20765C23.4964 1.41747 24.0301 1.4591 24.4786 1.71348C25.0308 2.02672 25.378 2.62107 25.6025 3.22573C25.6543 3.36513 25.7006 3.50652 25.7449 3.64864L25.7452 3.64837C25.7842 3.73915 25.8127 3.83678 25.8326 3.93767C25.9453 4.31794 26.0543 4.69941 26.2114 5.06239C26.5925 5.94325 27.2664 6.78034 27.1618 7.73634ZM14.7775 15.4805L14.7592 15.4339C15.6768 15.0125 16.0178 13.6166 14.9845 12.4027L14.9034 12.3739C15.9219 11.5824 16.0645 9.86243 14.7493 9.14505C15.6828 8.30157 15.7858 6.38144 15.0779 5.3316L15.0801 5.33433C16.9715 1.95656 13.7099 0.237613 12.2432 0.0283232C11.7796 -0.0378489 11.1899 0.00923651 10.7585 0.198043L10.7891 0.234355C10.7727 0.224578 10.756 0.215268 10.7394 0.205957L10.7423 0.191459C10.7267 0.187602 10.7112 0.184942 10.6956 0.181816C10.6862 0.176828 10.6772 0.171375 10.6678 0.16652L10.6747 0.17756C10.286 0.107796 9.88433 0.257166 9.53711 0.464594V0.464527C9.53704 0.464594 9.53698 0.46466 9.53691 0.464727C9.51676 0.476764 9.49674 0.488868 9.47699 0.501238C9.09678 0.73959 8.73773 1.02523 8.32932 1.20772C7.85966 1.41754 7.32596 1.45917 6.87752 1.71355C6.32534 2.02679 5.97812 2.62114 5.7536 3.2258C5.70186 3.36519 5.6555 3.50658 5.61121 3.6487L5.61094 3.64844C5.57197 3.73922 5.54338 3.83678 5.52349 3.9376C5.41083 4.31787 5.30176 4.69934 5.14468 5.06239C4.76354 5.94331 4.08958 6.78034 4.19426 7.73634C4.21455 7.92156 4.26403 8.098 4.3288 8.26998L4.32827 8.26984C4.36924 8.39028 4.42064 8.50627 4.47957 8.6182C4.64343 8.96003 4.83616 9.29461 4.94889 9.6562C5.21903 10.5225 5.09606 11.509 5.54896 12.2903C6.08738 13.2193 7.36354 13.5098 7.84071 14.4735L7.84078 14.4734C7.8733 14.5428 7.91194 14.6091 7.95729 14.6711C8.34349 15.1991 9.10024 15.3233 9.49169 15.8472C9.68276 16.1029 9.76382 16.4251 9.89683 16.7171C10.2612 17.5174 11.0585 18.0908 11.917 18.1701L11.9507 18.1754C11.9749 18.2926 12.0168 18.4057 12.0767 18.5086C12.3842 19.0372 13.0549 19.2208 13.4421 19.691C13.6363 19.9267 13.7481 20.2217 13.9184 20.4762C14.0887 20.7306 14.3544 20.9568 14.6552 20.9354C14.9458 20.9147 15.1761 20.6696 15.3183 20.4084C15.6507 19.7978 15.6552 19.0635 15.6511 18.3652C15.6451 17.2941 15.3049 16.0502 14.7775 15.4805Z" fill="white"/>
</mask>
<g mask="url(#mask0_201_13)">
<path d="M16.4238 12.4244C16.956 12.8604 17.7333 13.0459 18.672 12.7029" stroke="#FDB62F" stroke-width="0.7545" stroke-miterlimit="10" stroke-linecap="round" stroke-linejoin="round"/>
<path d="M16.5529 15.5777C17.1579 15.8898 18.0266 15.779 18.9263 14.9074" stroke="#FDB62F" stroke-width="0.7545" stroke-miterlimit="10" stroke-linecap="round" stroke-linejoin="round"/>
<path d="M16.589 9.09979C16.8877 9.37958 17.2713 9.55089 17.7405 9.55089" stroke="#FDB62F" stroke-width="0.7545" stroke-miterlimit="10" stroke-linecap="round" stroke-linejoin="round"/>
<path d="M17.6078 4.44852C17.0336 4.44852 16.5955 4.73203 16.2948 5.16544" stroke="#FDB62F" stroke-width="0.7545" stroke-miterlimit="10" stroke-linecap="round" stroke-linejoin="round"/>
<path d="M16.5529 1.17559C16.8303 1.04777 17.1328 0.962245 17.4368 0.98233C17.7407 1.00248 18.0463 1.13868 18.2306 1.38807C18.4318 1.66041 18.4653 2.02146 18.5851 2.34022C18.7804 2.86049 19.2 3.25473 19.4856 3.72937C19.8368 4.31308 19.9776 5.03512 19.8298 5.70236C19.682 6.3696 19.2359 6.96874 18.6291 7.25179C18.0224 7.53483 17.266 7.47824 16.7259 7.07369" stroke="#FDB62F" stroke-width="0.7545" stroke-miterlimit="10" stroke-linecap="round" stroke-linejoin="round"/>
<path d="M18.7166 7.2207C18.3756 7.63922 18.3078 8.27148 18.5516 8.75829" stroke="#FDB62F" stroke-width="0.7545" stroke-miterlimit="10" stroke-linecap="round" stroke-linejoin="round"/>
<path d="M22.0258 4.56062C21.6668 3.89026 21.6417 3.07138 21.9823 2.39364C22.1934 1.97346 22.6884 0.940376 21.9919 0.168922" stroke="#FDB62F" stroke-width="0.7545" stroke-miterlimit="10" stroke-linecap="round" stroke-linejoin="round"/>
<path d="M20.8252 -0.135658C20.5274 0.0187655 20.256 0.235238 20.0648 0.515688C19.8736 0.796138 19.767 1.14336 19.8011 1.48453" stroke="#FDB62F" stroke-width="0.7545" stroke-miterlimit="10" stroke-linecap="round" stroke-linejoin="round"/>
<path d="M22.0426 2.28548C21.595 3.05933 20.8386 3.41287 19.96 3.42039" stroke="#FDB62F" stroke-width="0.7545" stroke-miterlimit="10" stroke-linecap="round" stroke-linejoin="round"/>
<path d="M21.1071 4.96991C20.7615 5.1796 20.5532 5.57218 20.4622 5.9738C20.3713 6.37542 20.3822 6.793 20.3787 7.2056C20.3752 7.61819 20.355 8.0397 20.2071 8.4229C20.042 8.85099 19.7307 9.19894 19.49 9.58726C19.2492 9.97551 19.0754 10.4587 19.2269 10.8933" stroke="#FDB62F" stroke-width="0.7545" stroke-miterlimit="10" stroke-linecap="round" stroke-linejoin="round"/>
<path d="M22.5114 8.57804C21.9239 8.03344 21.0282 7.86857 20.2956 8.17024" stroke="#FDB62F" stroke-width="0.7545" stroke-miterlimit="10" stroke-linecap="round" stroke-linejoin="round"/>
<path d="M22.9955 6.56049C23.0799 6.20715 23.3891 5.95124 23.7203 5.82189C24.0516 5.69254 24.411 5.66474 24.7608 5.60442C25.1106 5.5441 25.4695 5.44228 25.7315 5.19768C26.0292 4.91975 26.1733 4.46307 26.158 4.0252" stroke="#FDB62F" stroke-width="0.7545" stroke-miterlimit="10" stroke-linecap="round" stroke-linejoin="round"/>
<path d="M23.5066 3.9839C24.2279 4.18847 24.9097 4.76972 25.3138 5.41661" stroke="#FDB62F" stroke-width="0.7545" stroke-miterlimit="10" stroke-linecap="round" stroke-linejoin="round"/>
<path d="M19.5052 18.4206C19.5568 18.1645 19.5254 17.89 19.4093 17.6562C19.2375 17.3104 18.8857 17.0653 18.5094 17.0292" stroke="#FDB62F" stroke-width="0.7545" stroke-miterlimit="10" stroke-linecap="round" stroke-linejoin="round"/>
<path d="M18.6917 16.0587C18.6728 16.8557 18.2752 17.6328 17.6473 18.1003" stroke="#FDB62F" stroke-width="0.7545" stroke-miterlimit="10" stroke-linecap="round" stroke-linejoin="round"/>
<path d="M23.8387 14.3185C23.8881 14.093 23.886 13.853 23.8391 13.6261C23.7548 13.2187 23.538 12.8499 23.2743 12.5328" stroke="#FDB62F" stroke-width="0.7545" stroke-miterlimit="10" stroke-linecap="round" stroke-linejoin="round"/>
<path d="M22.144 15.9038C21.8908 16.1537 21.5296 16.3072 21.1788 16.336C20.828 16.3648 20.2944 16.2652 20.0633 16.0044" stroke="#FDB62F" stroke-width="0.7545" stroke-miterlimit="10" stroke-linecap="round" stroke-linejoin="round"/>
<path d="M21.1202 15.2275C20.6264 15.8154 19.8955 16.1866 19.1392 16.2337" stroke="#FDB62F" stroke-width="0.7545" stroke-miterlimit="10" stroke-linecap="round" stroke-linejoin="round"/>
<path d="M18.0022 10.7011C17.5943 13.568 20.4213 13.2143 21.3129 11.8905C21.6859 11.3366 21.8383 10.6514 21.8597 9.97739" stroke="#FDB62F" stroke-width="0.7545" stroke-miterlimit="10" stroke-linecap="round" stroke-linejoin="round"/>
<path d="M19.7948 12.8322C20.2062 13.2813 20.4637 13.8756 20.5127 14.4889" stroke="#FDB62F" stroke-width="0.7545" stroke-miterlimit="10" stroke-linecap="round" stroke-linejoin="round"/>
<path d="M22.7838 12.8406C23.0833 12.5002 23.5775 12.343 24.0288 12.4445" stroke="#FDB62F" stroke-width="0.7545" stroke-miterlimit="10" stroke-linecap="round" stroke-linejoin="round"/>
<path d="M26.9927 8.91911C26.6079 9.43665 26.0382 9.81526 25.4176 9.95665C24.5409 10.1564 23.5708 9.86175 22.9387 9.20369" stroke="#FDB62F" stroke-width="0.7545" stroke-miterlimit="10" stroke-linecap="round" stroke-linejoin="round"/>
<path d="M27.3586 8.21703C27.2722 8.47108 27.1448 8.70837 26.986 8.92198" stroke="#FDB62F" stroke-width="0.7545" stroke-miterlimit="10" stroke-linecap="round" stroke-linejoin="round"/>
<path d="M25.3887 9.96687C24.8969 9.73271 24.5594 9.19057 24.5597 8.63519" stroke="#FDB62F" stroke-width="0.7545" stroke-miterlimit="10" stroke-linecap="round" stroke-linejoin="round"/>
<path d="M18.0726 14.1009C18.3918 14.2605 18.666 14.4968 18.8884 14.7746C19.0469 14.9724 19.2026 15.2868 19.2254 15.545" stroke="#FDB62F" stroke-width="0.7545" stroke-miterlimit="10" stroke-linecap="round" stroke-linejoin="round"/>
<path d="M14.8822 12.4347C14.3507 12.8578 13.5819 13.0336 12.6561 12.6953" stroke="#FDB62F" stroke-width="0.7545" stroke-miterlimit="10" stroke-linecap="round" stroke-linejoin="round"/>
<path d="M14.754 15.5891C14.1501 15.8869 13.2918 15.7682 12.4032 14.9074" stroke="#FDB62F" stroke-width="0.7545" stroke-miterlimit="10" stroke-linecap="round" stroke-linejoin="round"/>
<path d="M14.7576 9.08431C14.456 9.37574 14.0655 9.55503 13.5854 9.55503" stroke="#FDB62F" stroke-width="0.7545" stroke-miterlimit="10" stroke-linecap="round" stroke-linejoin="round"/>
<path d="M14.7781 1.17559C14.5007 1.04777 14.1981 0.962245 13.8942 0.98233C13.5903 1.00248 13.2847 1.13868 13.1004 1.38807C12.8992 1.66041 12.8657 2.02146 12.7459 2.34022C12.5505 2.86049 12.1309 3.25473 11.8453 3.72937C11.4941 4.31308 11.3533 5.03512 11.5011 5.70236C11.6489 6.3696 12.095 6.96874 12.7018 7.25179C13.3086 7.53483 14.0649 7.47824 14.605 7.07369" stroke="#FDB62F" stroke-width="0.7545" stroke-miterlimit="10" stroke-linecap="round" stroke-linejoin="round"/>
<path d="M12.6097 7.2207C12.9506 7.63922 13.0185 8.27148 12.7747 8.75829" stroke="#FDB62F" stroke-width="0.7545" stroke-miterlimit="10" stroke-linecap="round" stroke-linejoin="round"/>
<path d="M9.30029 4.56062C9.65934 3.89026 9.68442 3.07138 9.34385 2.39364C9.13269 1.97346 8.6377 0.940376 9.3342 0.168922" stroke="#FDB62F" stroke-width="0.7545" stroke-miterlimit="10" stroke-linecap="round" stroke-linejoin="round"/>
<path d="M10.5086 -0.135658C10.8064 0.0187655 11.0778 0.235238 11.269 0.515688C11.4602 0.796138 11.5667 1.14336 11.5326 1.48453" stroke="#FDB62F" stroke-width="0.7545" stroke-miterlimit="10" stroke-linecap="round" stroke-linejoin="round"/>
<path d="M9.28511 2.28548C9.73269 3.05933 10.4891 3.41287 11.3677 3.42039" stroke="#FDB62F" stroke-width="0.7545" stroke-miterlimit="10" stroke-linecap="round" stroke-linejoin="round"/>
<path d="M10.2195 4.96991C10.5652 5.1796 10.7735 5.57218 10.8644 5.9738C10.9553 6.37542 10.9444 6.793 10.9479 7.2056C10.9514 7.61819 10.9717 8.0397 11.1195 8.4229C11.2846 8.85099 11.5959 9.19894 11.8367 9.58726C12.0774 9.97551 12.2512 10.4587 12.0997 10.8933" stroke="#FDB62F" stroke-width="0.7545" stroke-miterlimit="10" stroke-linecap="round" stroke-linejoin="round"/>
<path d="M8.82567 8.57804C9.41324 8.03344 10.3089 7.86857 11.0415 8.17024" stroke="#FDB62F" stroke-width="0.7545" stroke-miterlimit="10" stroke-linecap="round" stroke-linejoin="round"/>
<path d="M8.32913 6.56404C8.2448 6.2107 7.93556 5.95479 7.6043 5.82544C7.27304 5.69609 6.91365 5.66829 6.56383 5.60797C6.21402 5.54765 5.85509 5.44583 5.59313 5.20123C5.15899 4.79588 5.05145 4.01026 5.28887 3.45734" stroke="#FDB62F" stroke-width="0.7545" stroke-miterlimit="10" stroke-linecap="round" stroke-linejoin="round"/>
<path d="M7.8246 3.9839C7.10323 4.18847 6.42149 4.76972 6.01734 5.41661" stroke="#FDB62F" stroke-width="0.7545" stroke-miterlimit="10" stroke-linecap="round" stroke-linejoin="round"/>
<path d="M11.8142 18.3707C11.776 18.1292 11.8104 17.8748 11.9191 17.6562C12.0909 17.3104 12.4427 17.0653 12.819 17.0292" stroke="#FDB62F" stroke-width="0.7545" stroke-miterlimit="10" stroke-linecap="round" stroke-linejoin="round"/>
<path d="M12.6303 16.0587C12.6492 16.8557 13.0468 17.6328 13.6747 18.1003" stroke="#FDB62F" stroke-width="0.7545" stroke-miterlimit="10" stroke-linecap="round" stroke-linejoin="round"/>
<path d="M7.51729 14.4281C7.43994 14.172 7.43376 13.8903 7.48842 13.6261C7.57275 13.2187 7.78949 12.8499 8.05325 12.5328" stroke="#FDB62F" stroke-width="0.7545" stroke-miterlimit="10" stroke-linecap="round" stroke-linejoin="round"/>
<path d="M9.18187 15.9038C9.43505 16.1537 9.79624 16.3072 10.1471 16.336C10.4979 16.3648 11.0315 16.2652 11.2626 16.0044" stroke="#FDB62F" stroke-width="0.7545" stroke-miterlimit="10" stroke-linecap="round" stroke-linejoin="round"/>
<path d="M10.2092 15.2275C10.703 15.8154 11.4339 16.1866 12.1902 16.2337" stroke="#FDB62F" stroke-width="0.7545" stroke-miterlimit="10" stroke-linecap="round" stroke-linejoin="round"/>
<path d="M13.3285 10.7011C13.7364 13.568 10.9093 13.2143 10.0178 11.8905C9.64467 11.3366 9.49231 10.6514 9.47096 9.97739" stroke="#FDB62F" stroke-width="0.7545" stroke-miterlimit="10" stroke-linecap="round" stroke-linejoin="round"/>
<path d="M11.5362 12.8322C11.1248 13.2813 10.8673 13.8756 10.8183 14.4889" stroke="#FDB62F" stroke-width="0.7545" stroke-miterlimit="10" stroke-linecap="round" stroke-linejoin="round"/>
<path d="M8.54774 12.8406C8.24827 12.5002 7.75407 12.343 7.30277 12.4445" stroke="#FDB62F" stroke-width="0.7545" stroke-miterlimit="10" stroke-linecap="round" stroke-linejoin="round"/>
<path d="M3.96789 8.21703C4.2637 9.08651 5.03888 9.75974 5.91554 9.95952C6.79221 10.1593 7.76238 9.86462 8.39444 9.20656" stroke="#FDB62F" stroke-width="0.7545" stroke-miterlimit="10" stroke-linecap="round" stroke-linejoin="round"/>
<path d="M5.93475 9.96687C6.42655 9.73271 6.76412 9.19057 6.76386 8.63519" stroke="#FDB62F" stroke-width="0.7545" stroke-miterlimit="10" stroke-linecap="round" stroke-linejoin="round"/>
<path d="M13.2685 14.1009C12.9493 14.2605 12.6751 14.4968 12.4526 14.7746C12.2942 14.9724 12.1384 15.2868 12.1156 15.545" stroke="#FDB62F" stroke-width="0.7545" stroke-miterlimit="10" stroke-linecap="round" stroke-linejoin="round"/>
</g>
<path d="M8.42545 31.3973H14.6385C14.4566 30.5937 14.019 28.352 14.0542 25.5604C14.0616 24.9703 14.1435 24.4502 14.223 23.9475C14.3776 22.9696 14.5112 22.125 14.0628 21.0692C13.5774 19.9264 11.9599 19.5347 11.2967 19.5319C10.0867 19.5257 8.94889 19.1088 8.09412 18.3584C7.8628 18.156 7.6457 17.9308 7.44735 17.6886C6.82503 16.9298 5.72758 16.3784 5.12912 16.1178C4.79949 15.9737 4.42268 16.0006 4.12203 16.1884C4.11465 16.1934 4.10669 16.1985 4.09816 16.2035C3.92994 16.3128 3.8265 16.4591 3.7924 16.6378C3.73955 16.9136 3.85037 17.2599 4.10442 17.6135C4.87451 18.6851 5.91058 19.1912 5.92138 19.1962L5.92933 19.2001L5.93615 19.2069C6.61304 19.8592 8.6903 21.2608 8.71133 21.2748L8.72383 21.2832L8.73008 21.2967C8.73463 21.3062 9.19498 22.2349 9.77923 22.4949L9.73205 22.5975C9.14326 22.3352 8.69655 21.4822 8.6346 21.3589C8.46069 21.2418 6.52552 19.9281 5.86284 19.2932C5.76054 19.2416 4.76141 18.721 4.01121 17.6786C3.73955 17.2997 3.6219 16.9225 3.68044 16.6171C3.71511 16.4355 3.81002 16.2831 3.96233 16.1626C3.62133 15.7905 3.29056 15.6055 3.28715 15.6038L3.25987 15.5887L3.25817 15.5579C3.22066 14.8248 2.63357 13.4232 2.28404 12.9312L2.27893 12.9239L2.27609 12.9143C2.27381 12.9071 2.05557 12.1505 1.76175 11.5446C1.38267 10.7634 0.906403 10.4451 0.384673 10.6244C0.238612 10.6743 0.122103 10.7791 0.0556082 10.9192C-0.0120235 11.0621 -0.0182751 11.2286 0.0385582 11.376C0.163592 11.7027 0.376148 12.3186 0.676228 13.3952C0.912655 14.2431 1.03826 14.8136 1.13942 15.2726C1.27639 15.8947 1.3588 16.2708 1.60489 16.7555C1.89701 17.3322 2.19766 17.8231 2.48864 18.2984C3.06323 19.2371 3.60656 20.1232 3.87992 21.3948C3.92823 21.6167 4.05668 21.8112 4.24138 21.9418C4.50282 22.1261 4.95237 22.3873 5.6105 22.5846C6.36013 22.8099 7.59171 23.4045 8.52548 24.1784C9.18191 24.7232 9.55075 25.5627 9.51154 26.4241C9.38196 29.2845 8.75452 30.7926 8.42545 31.3973ZM3.37638 15.0361L3.3616 15.0227L3.35876 15.0025C3.32523 14.7654 3.20474 14.5245 3.20361 14.5217L3.19736 14.5104V14.497C3.18599 13.1122 2.66881 12.0754 2.66369 12.0653L2.65573 12.0496L2.65858 12.0322C2.71086 11.6663 2.70234 11.0246 2.36247 10.0461C2.1431 9.41221 1.80721 9.10061 1.36789 9.11686C1.18375 9.12415 1.01666 9.21382 0.909813 9.36289C0.801262 9.51365 0.77114 9.70083 0.826268 9.8768C0.904698 10.1284 0.970057 10.3677 1.01382 10.5336C1.29287 10.6508 1.59011 10.9304 1.86405 11.4959C2.1448 12.0743 2.35679 12.786 2.38293 12.8751C2.7353 13.3767 3.31784 14.7677 3.36956 15.522C3.45936 15.5753 3.75205 15.763 4.05611 16.0976C4.05724 16.0965 4.05895 16.0959 4.06009 16.0948C4.10498 16.0668 4.15159 16.0421 4.19876 16.0208C3.89754 15.5086 3.38206 15.0412 3.37638 15.0361ZM3.93392 15.2805L3.91687 15.2648L3.9163 15.2418C3.90095 14.7245 3.55541 13.0959 3.552 13.0791L3.54972 13.0685L3.55143 13.0572C3.61735 12.7109 3.59292 12.0154 3.48834 11.2426C3.39855 10.579 3.132 10.208 2.69665 10.1396C2.63527 10.1301 2.57389 10.1301 2.51308 10.1391C2.81203 11.052 2.82282 11.6674 2.77338 12.0311C2.83874 12.1684 3.29738 13.1733 3.31102 14.4835C3.33603 14.5357 3.43378 14.7475 3.46845 14.9672C3.55938 15.0507 4.02201 15.4895 4.30561 15.9782C4.36358 15.9586 4.42325 15.9435 4.48349 15.9328C4.23627 15.5669 3.93733 15.2833 3.93392 15.2805ZM4.71935 14.9347L4.70401 14.9212L4.70117 14.9005C4.63297 14.3989 4.521 14.1641 4.36585 13.839C4.32209 13.7477 4.27719 13.6535 4.22774 13.5426C4.06122 13.1693 3.82934 13.0427 3.67589 13.0001C3.67248 13.0236 3.66907 13.046 3.66566 13.0668C3.69806 13.2203 4.00609 14.6842 4.0294 15.2155C4.10044 15.285 4.37949 15.5652 4.60853 15.9171C4.79949 15.9037 4.99329 15.9362 5.17516 16.0152C5.2013 16.0264 5.22915 16.0393 5.257 16.0516C5.1348 15.3113 4.7239 14.9386 4.71935 14.9347Z" fill="white"/>
<path d="M31.6032 10.9192C31.5367 10.7791 31.4202 10.6743 31.2741 10.6245C30.7524 10.4457 30.2761 10.7634 29.897 11.5447C29.6032 12.1505 29.385 12.9071 29.3827 12.9144L29.3798 12.9239L29.3747 12.9312C29.0252 13.4233 28.4381 14.8249 28.4006 15.5579L28.3989 15.5888L28.3716 15.6039C28.3682 15.6056 28.0374 15.7905 27.6964 16.1626C27.8493 16.2837 27.9437 16.4361 27.9783 16.6171C28.0369 16.9226 27.9192 17.2997 27.6476 17.6786C26.8974 18.721 25.8982 19.2416 25.7959 19.2932C25.1333 19.9282 23.1981 21.2418 23.0242 21.3589C22.9622 21.4822 22.5155 22.3352 21.9267 22.5975L21.8795 22.4949C22.4644 22.2349 22.9241 21.3063 22.9287 21.2967L22.9349 21.2833L22.9474 21.2749C22.9685 21.2609 25.0457 19.8592 25.7226 19.2069L25.7294 19.2002L25.7374 19.1962C25.7482 19.1912 26.7848 18.684 27.5549 17.6136C27.8084 17.26 27.9192 16.9136 27.8664 16.6379C27.8323 16.4591 27.7288 16.3128 27.5583 16.2024C27.5521 16.1985 27.5441 16.1935 27.535 16.1879C27.364 16.0808 27.1668 16.0259 26.9678 16.0259C26.8201 16.0259 26.6706 16.0562 26.5296 16.1178C25.9312 16.3784 24.8337 16.9299 24.2114 17.6887C24.0131 17.9308 23.796 18.1561 23.5647 18.3584C22.7099 19.1088 21.5721 19.5258 20.3621 19.5319C19.6989 19.5347 18.0814 19.9265 17.596 21.0692C17.1476 22.1251 17.2812 22.9696 17.4357 23.9476C17.5153 24.4503 17.5972 24.9704 17.6045 25.5605C17.6398 28.352 17.2022 30.5937 17.0203 31.3974H23.2333C22.9043 30.7927 22.2768 29.2846 22.1472 26.4241C22.108 25.5627 22.4769 24.7232 23.1333 24.1785C24.0671 23.4045 25.2986 22.8099 26.0483 22.5846C26.7064 22.3873 27.156 22.1262 27.4174 21.9418C27.6021 21.8112 27.7305 21.6167 27.7788 21.3948C28.0522 20.1232 28.5955 19.2372 29.1701 18.2984C29.4611 17.8232 29.7618 17.3323 30.0539 16.7556C30.3 16.2708 30.3824 15.8947 30.5194 15.2727C30.6205 14.8137 30.7461 14.2432 30.9825 13.3952C31.2826 12.3186 31.4952 11.7027 31.6202 11.376C31.677 11.2286 31.6708 11.0622 31.6032 10.9192ZM27.9829 13.0001C27.8294 13.0427 27.5975 13.1694 27.431 13.5426C27.3816 13.6536 27.3367 13.7477 27.2929 13.8391C27.1378 14.1641 27.0258 14.399 26.9576 14.9005L26.9548 14.9213L26.9394 14.9347C26.9349 14.9387 26.524 15.3113 26.4018 16.0517C26.4296 16.0393 26.4575 16.0265 26.4836 16.0152C26.6655 15.9362 26.8599 15.9037 27.0502 15.9166C27.2793 15.5647 27.5583 15.2844 27.6294 15.2155C27.6527 14.6842 27.9607 13.2204 27.9931 13.0668C27.9897 13.0461 27.9863 13.0237 27.9829 13.0001ZM29.1457 10.1391C29.0849 10.1302 29.0235 10.1302 28.9615 10.1397C28.5268 10.2081 28.2602 10.5791 28.1704 11.2426C28.0659 12.0154 28.0414 12.7109 28.1073 13.0573L28.109 13.0685L28.1068 13.0791C28.1034 13.096 27.7578 14.7246 27.7425 15.2418L27.7419 15.2648L27.7249 15.2805C27.7214 15.2833 27.4225 15.5669 27.1753 15.9323C27.2355 15.9429 27.2952 15.9586 27.3532 15.9783C27.6368 15.4896 28.0994 15.0507 28.1903 14.9672C28.225 14.7475 28.3227 14.5357 28.3477 14.4836C28.3614 13.1733 28.82 12.1684 28.8854 12.0311C28.8359 11.6674 28.8467 11.0521 29.1457 10.1391ZM30.749 9.36293C30.6421 9.21386 30.475 9.12419 30.2909 9.1169C29.8499 9.10009 29.5157 9.41225 29.2963 10.0461C28.9564 11.0246 28.9479 11.6663 29.0002 12.0323L29.003 12.0496L28.9951 12.0653C28.99 12.0754 28.4728 13.1133 28.4614 14.497V14.5105L28.4552 14.5217C28.454 14.5245 28.333 14.766 28.3 15.0025L28.2972 15.0227L28.2824 15.0362C28.2767 15.0412 27.7612 15.5086 27.46 16.0203C27.5072 16.0421 27.5532 16.0662 27.5975 16.0943C27.5993 16.0954 27.601 16.0965 27.6027 16.0976C27.9067 15.763 28.1994 15.5753 28.2892 15.5221C28.3409 14.7677 28.9235 13.3767 29.2758 12.8751C29.302 12.786 29.514 12.0743 29.7947 11.4959C30.0687 10.9305 30.3659 10.6508 30.6449 10.5337C30.6887 10.3678 30.7541 10.1285 30.8325 9.87741C30.8876 9.70087 30.8575 9.51369 30.749 9.36293Z" fill="white"/>
</svg>
